<svg width="30" height="30" viewBox="0 0 30 30" fill="none" xmlns="http://www.w3.org/2000/svg">
<mask id="mask0_9632_1153" style="mask-type:alpha" maskUnits="userSpaceOnUse" x="0" y="0" width="30" height="30">
<rect width="30" height="30" fill="#000"/>
</mask>
<g mask="url(#mask0_9632_1153)">
<path d="M3.28125 17.5313L1.25 16.0625L7.5 6.0625L11.25 10.4375L16.25 2.3125L20 7.9375L24.2188 1.25L26.25 2.71875L20.0625 12.5313L16.3437 6.9375L11.5938 14.6563L7.8125 10.25L3.28125 17.5313ZM18.125 22.5C19 22.5 19.7396 22.1979 20.3438 21.5937C20.9479 20.9896 21.25 20.25 21.25 19.375C21.25 18.5 20.9479 17.7604 20.3438 17.1563C19.7396 16.5521 19 16.25 18.125 16.25C17.25 16.25 16.5104 16.5521 15.9063 17.1563C15.3021 17.7604 15 18.5 15 19.375C15 20.25 15.3021 20.9896 15.9063 21.5937C16.5104 22.1979 17.25 22.5 18.125 22.5ZM24.5 27.5L21.125 24.125C20.6875 24.4167 20.2135 24.6354 19.7031 24.7813C19.1927 24.9271 18.6667 25 18.125 25C16.5625 25 15.2344 24.4531 14.1406 23.3594C13.0469 22.2656 12.5 20.9375 12.5 19.375C12.5 17.8125 13.0469 16.4844 14.1406 15.3906C15.2344 14.2969 16.5625 13.75 18.125 13.75C19.6875 13.75 21.0156 14.2969 22.1094 15.3906C23.2031 16.4844 23.75 17.8125 23.75 19.375C23.75 19.9167 23.6771 20.4427 23.5313 20.9531C23.3854 21.4635 23.1667 21.9375 22.875 22.375L26.25 25.75L24.5 27.5Z" fill="#000"/>
</g>
</svg>
