<svg width="22" height="22" viewBox="0 0 22 22" fill="none" xmlns="http://www.w3.org/2000/svg">
<mask id="mask0_5436_1654" style="mask-type:alpha" maskUnits="userSpaceOnUse" x="0" y="0" width="22" height="22">
<rect width="22" height="22" transform="matrix(-1 0 0 1 22 0)" fill="#D9D9D9"/>
</mask>
<g mask="url(#mask0_5436_1654)">
<path d="M11 20.1666C12.1458 20.1666 13.2191 19.9489 14.2198 19.5135C15.2205 19.0781 16.0913 18.4899 16.8323 17.7489C17.5733 17.0079 18.1615 16.1371 18.5969 15.1364C19.0323 14.1357 19.25 13.0624 19.25 11.9166C19.25 10.7708 19.0323 9.6975 18.5969 8.6968C18.1615 7.69611 17.5733 6.82528 16.8323 6.0843C16.0913 5.34333 15.2205 4.75514 14.2198 4.31972C13.2191 3.8843 12.1458 3.6666 11 3.6666H10.8625L12.2833 2.24576L11 0.916595L7.33333 4.58326L11 8.24993L12.2833 6.92076L10.8625 5.49993H11C12.7875 5.49993 14.3038 6.1225 15.549 7.36764C16.7941 8.61278 17.4167 10.1291 17.4167 11.9166C17.4167 13.7041 16.7941 15.2204 15.549 16.4656C14.3038 17.7107 12.7875 18.3333 11 18.3333C9.2125 18.3333 7.69618 17.7107 6.45104 16.4656C5.2059 15.2204 4.58333 13.7041 4.58333 11.9166H2.75C2.75 13.0624 2.96771 14.1357 3.40312 15.1364C3.83854 16.1371 4.42674 17.0079 5.16771 17.7489C5.90868 18.4899 6.77951 19.0781 7.78021 19.5135C8.7809 19.9489 9.85417 20.1666 11 20.1666Z" fill="black"/>
</g>
</svg>
