<svg width="26" height="24" viewBox="0 0 26 24" fill="none" xmlns="http://www.w3.org/2000/svg">
<path d="M1.84375 13.25C1.82292 13.0417 1.80729 12.8333 1.79688 12.625C1.78646 12.4167 1.78125 12.2083 1.78125 12C1.78125 10.4375 2.07292 8.97396 2.65625 7.60938C3.23958 6.24479 4.04167 5.05729 5.0625 4.04688C6.08333 3.03646 7.27083 2.23438 8.625 1.64063C9.97917 1.04688 11.4375 0.75 13 0.75C14.5625 0.75 16.026 1.04688 17.3906 1.64063C18.7552 2.23438 19.9427 3.03646 20.9531 4.04688C21.9635 5.05729 22.7656 6.24479 23.3594 7.60938C23.9531 8.97396 24.25 10.4375 24.25 12C24.25 12.2083 24.2448 12.4167 24.2344 12.625C24.224 12.8333 24.2083 13.0417 24.1875 13.25H21.6563C21.6979 13.0417 21.724 12.8333 21.7344 12.625C21.7448 12.4167 21.75 12.2083 21.75 12C21.75 11.7917 21.7448 11.5833 21.7344 11.375C21.724 11.1667 21.6979 10.9583 21.6563 10.75H17.9688C17.9896 10.9583 18 11.1667 18 11.375V12.625C18 12.8333 17.9896 13.0417 17.9688 13.25H15.5V12.2188C15.5 11.9688 15.4948 11.7188 15.4844 11.4688C15.474 11.2188 15.4583 10.9792 15.4375 10.75H10.5938C10.5729 10.9792 10.5573 11.2188 10.5469 11.4688C10.5365 11.7188 10.5313 11.9688 10.5313 12.2188V13.25H8.0625C8.04167 13.0417 8.03125 12.8333 8.03125 12.625V11.375C8.03125 11.1667 8.04167 10.9583 8.0625 10.75H4.375C4.33333 10.9583 4.30729 11.1667 4.29688 11.375C4.28646 11.5833 4.28125 11.7917 4.28125 12C4.28125 12.2083 4.28646 12.4167 4.29688 12.625C4.30729 12.8333 4.33333 13.0417 4.375 13.25H1.84375ZM5.125 8.25H8.34375C8.51042 7.35417 8.71875 6.54688 8.96875 5.82812C9.21875 5.10938 9.48958 4.45833 9.78125 3.875C8.78125 4.25 7.875 4.81771 7.0625 5.57812C6.25 6.33854 5.60417 7.22917 5.125 8.25ZM10.9375 8.25H15.0625C14.8542 7.35417 14.5938 6.47917 14.2813 5.625C13.9688 4.77083 13.5417 3.97917 13 3.25C12.4583 3.97917 12.026 4.77083 11.7031 5.625C11.3802 6.47917 11.125 7.35417 10.9375 8.25ZM17.6875 8.25H20.9062C20.4271 7.22917 19.776 6.33854 18.9531 5.57812C18.1302 4.81771 17.2188 4.25 16.2188 3.875C16.5104 4.5 16.7865 5.16146 17.0469 5.85938C17.3073 6.55729 17.5208 7.35417 17.6875 8.25ZM11.75 23.25V22C11.75 20.9583 11.3854 20.0729 10.6562 19.3438C9.92708 18.6146 9.04167 18.25 8 18.25H0.5V15.75H8C9 15.75 9.93229 15.9688 10.7969 16.4063C11.6615 16.8438 12.3958 17.4583 13 18.25C13.6042 17.4583 14.3385 16.8438 15.2031 16.4063C16.0677 15.9688 17 15.75 18 15.75H25.5V18.25H18C16.9583 18.25 16.0729 18.6146 15.3438 19.3438C14.6146 20.0729 14.25 20.9583 14.25 22V23.25H11.75Z" fill="white"/>
</svg>
