<svg width="30" height="30" viewBox="0 0 30 30" fill="none" xmlns="http://www.w3.org/2000/svg">
<mask id="mask0_9632_1219" style="mask-type:alpha" maskUnits="userSpaceOnUse" x="0" y="0" width="30" height="30">
<rect width="30" height="30" fill="#fff"/>
</mask>
<g mask="url(#mask0_9632_1219)">
<path d="M13.75 27.5V17.1563C13.375 16.9271 13.0729 16.6302 12.8438 16.2656C12.6146 15.901 12.5 15.4792 12.5 15C12.5 14.3125 12.7448 13.724 13.2344 13.2344C13.724 12.7448 14.3125 12.5 15 12.5C15.6875 12.5 16.276 12.7448 16.7656 13.2344C17.2552 13.724 17.5 14.3125 17.5 15C17.5 15.4792 17.3854 15.9063 17.1563 16.2813C16.9271 16.6563 16.625 16.9479 16.25 17.1563V27.5H13.75ZM6.375 24.0625C5.1875 22.9167 4.24479 21.5677 3.54688 20.0156C2.84896 18.4635 2.5 16.7917 2.5 15C2.5 13.2708 2.82812 11.6458 3.48438 10.125C4.14063 8.60417 5.03125 7.28125 6.15625 6.15625C7.28125 5.03125 8.60417 4.14063 10.125 3.48438C11.6458 2.82812 13.2708 2.5 15 2.5C16.7292 2.5 18.3542 2.82812 19.875 3.48438C21.3958 4.14063 22.7188 5.03125 23.8438 6.15625C24.9688 7.28125 25.8594 8.60417 26.5156 10.125C27.1719 11.6458 27.5 13.2708 27.5 15C27.5 16.7917 27.151 18.4688 26.4531 20.0313C25.7552 21.5938 24.8125 22.9375 23.625 24.0625L21.875 22.3125C22.8333 21.3958 23.5938 20.3073 24.1563 19.0469C24.7188 17.7865 25 16.4375 25 15C25 12.2083 24.0313 9.84375 22.0938 7.90625C20.1563 5.96875 17.7917 5 15 5C12.2083 5 9.84375 5.96875 7.90625 7.90625C5.96875 9.84375 5 12.2083 5 15C5 16.4375 5.28125 17.7813 5.84375 19.0313C6.40625 20.2813 7.17708 21.3646 8.15625 22.2812L6.375 24.0625ZM9.90625 20.5313C9.17708 19.8438 8.59375 19.026 8.15625 18.0781C7.71875 17.1302 7.5 16.1042 7.5 15C7.5 12.9167 8.22917 11.1458 9.6875 9.6875C11.1458 8.22917 12.9167 7.5 15 7.5C17.0833 7.5 18.8542 8.22917 20.3125 9.6875C21.7708 11.1458 22.5 12.9167 22.5 15C22.5 16.1042 22.2813 17.1354 21.8438 18.0938C21.4063 19.0521 20.8229 19.8646 20.0937 20.5313L18.3125 18.75C18.8333 18.2708 19.2448 17.7083 19.5469 17.0625C19.849 16.4167 20 15.7292 20 15C20 13.625 19.5104 12.4479 18.5312 11.4688C17.5521 10.4896 16.375 10 15 10C13.625 10 12.4479 10.4896 11.4688 11.4688C10.4896 12.4479 10 13.625 10 15C10 15.75 10.151 16.4427 10.4531 17.0781C10.7552 17.7135 11.1667 18.2708 11.6875 18.75L9.90625 20.5313Z" fill="#fff"/>
</g>
</svg>
