<svg width="26" height="17" viewBox="0 0 26 17" fill="none" xmlns="http://www.w3.org/2000/svg">
<path d="M0.5 16.75V14.25H13V16.75H0.5ZM0.5 10.5V8H6.75V10.5H0.5ZM0.5 4.25V1.75H6.75V4.25H0.5ZM23.75 16.75L18.9375 11.9375C18.4375 12.2917 17.8906 12.5573 17.2969 12.7344C16.7031 12.9115 16.1042 13 15.5 13C13.7708 13 12.2969 12.3906 11.0781 11.1719C9.85938 9.95312 9.25 8.47917 9.25 6.75C9.25 5.02083 9.85938 3.54688 11.0781 2.32812C12.2969 1.10937 13.7708 0.5 15.5 0.5C17.2292 0.5 18.7031 1.10937 19.9219 2.32812C21.1406 3.54688 21.75 5.02083 21.75 6.75C21.75 7.35417 21.6615 7.95312 21.4844 8.54688C21.3073 9.14062 21.0417 9.6875 20.6875 10.1875L25.5 15L23.75 16.75ZM15.5 10.5C16.5417 10.5 17.4271 10.1354 18.1562 9.40625C18.8854 8.67708 19.25 7.79167 19.25 6.75C19.25 5.70833 18.8854 4.82292 18.1562 4.09375C17.4271 3.36458 16.5417 3 15.5 3C14.4583 3 13.5729 3.36458 12.8438 4.09375C12.1146 4.82292 11.75 5.70833 11.75 6.75C11.75 7.79167 12.1146 8.67708 12.8438 9.40625C13.5729 10.1354 14.4583 10.5 15.5 10.5Z" fill="#798491"/>
</svg>
