<svg width="20" height="26" viewBox="0 0 20 26" fill="none" xmlns="http://www.w3.org/2000/svg">
<path d="M0.00195312 21.7495V19.2495H2.50195V10.4995C2.50195 8.77035 3.02279 7.23389 4.06445 5.89014C5.10612 4.54639 6.46029 3.66618 8.12695 3.24951V2.37451C8.12695 1.85368 8.30924 1.41097 8.67383 1.04639C9.03841 0.681803 9.48112 0.499512 10.002 0.499512C10.5228 0.499512 10.9655 0.681803 11.3301 1.04639C11.6947 1.41097 11.877 1.85368 11.877 2.37451V3.24951C13.5436 3.66618 14.8978 4.54639 15.9395 5.89014C16.9811 7.23389 17.5019 8.77035 17.5019 10.4995V19.2495H20.0019V21.7495H0.00195312ZM10.002 25.4995C9.31445 25.4995 8.72591 25.2547 8.23633 24.7651C7.74674 24.2756 7.50195 23.687 7.50195 22.9995H12.502C12.502 23.687 12.2572 24.2756 11.7676 24.7651C11.278 25.2547 10.6895 25.4995 10.002 25.4995ZM5.00195 19.2495H15.002V10.4995C15.002 9.12451 14.5124 7.94743 13.5332 6.96826C12.554 5.9891 11.377 5.49951 10.002 5.49951C8.62695 5.49951 7.44987 5.9891 6.4707 6.96826C5.49154 7.94743 5.00195 9.12451 5.00195 10.4995V19.2495Z" fill="#798491"/>
</svg>
