<svg width="24" height="22" viewBox="0 0 24 22" fill="none" xmlns="http://www.w3.org/2000/svg">
<path d="M19.188 21.3125C17.8755 21.3125 16.7661 20.8594 15.8599 19.9531C14.9536 19.0469 14.5005 17.9375 14.5005 16.625C14.5005 15.3125 14.9536 14.2031 15.8599 13.2969C16.7661 12.3906 17.8755 11.9375 19.188 11.9375C20.5005 11.9375 21.6099 12.3906 22.5161 13.2969C23.4224 14.2031 23.8755 15.3125 23.8755 16.625C23.8755 17.9375 23.4224 19.0469 22.5161 19.9531C21.6099 20.8594 20.5005 21.3125 19.188 21.3125ZM19.188 18.8125C19.7922 18.8125 20.3078 18.599 20.7349 18.1719C21.1619 17.7448 21.3755 17.2292 21.3755 16.625C21.3755 16.0208 21.1619 15.5052 20.7349 15.0781C20.3078 14.651 19.7922 14.4375 19.188 14.4375C18.5838 14.4375 18.0682 14.651 17.6411 15.0781C17.214 15.5052 17.0005 16.0208 17.0005 16.625C17.0005 17.2292 17.214 17.7448 17.6411 18.1719C18.0682 18.599 18.5838 18.8125 19.188 18.8125ZM2.00049 17.875V15.375H12.0005V17.875H2.00049ZM4.81299 10.0625C3.50049 10.0625 2.39111 9.60938 1.48486 8.70312C0.578613 7.79688 0.125488 6.6875 0.125488 5.375C0.125488 4.0625 0.578613 2.95312 1.48486 2.04688C2.39111 1.14062 3.50049 0.6875 4.81299 0.6875C6.12549 0.6875 7.23486 1.14062 8.14111 2.04688C9.04736 2.95312 9.50049 4.0625 9.50049 5.375C9.50049 6.6875 9.04736 7.79688 8.14111 8.70312C7.23486 9.60938 6.12549 10.0625 4.81299 10.0625ZM4.81299 7.5625C5.41715 7.5625 5.93278 7.34896 6.35986 6.92188C6.78695 6.49479 7.00049 5.97917 7.00049 5.375C7.00049 4.77083 6.78695 4.25521 6.35986 3.82812C5.93278 3.40104 5.41715 3.1875 4.81299 3.1875C4.20882 3.1875 3.6932 3.40104 3.26611 3.82812C2.83903 4.25521 2.62549 4.77083 2.62549 5.375C2.62549 5.97917 2.83903 6.49479 3.26611 6.92188C3.6932 7.34896 4.20882 7.5625 4.81299 7.5625ZM12.0005 6.625V4.125H22.0005V6.625H12.0005Z" fill="#798491"/>
</svg>
