<svg width="90" height="16" viewBox="0 0 90 16" fill="none" xmlns="http://www.w3.org/2000/svg">
<g clip-path="url(#clip0_8294_93)">
<path fill-rule="evenodd" clip-rule="evenodd" d="M72.7988 12.9638H69.995L67.8684 10.0025L65.7408 12.9638H62.938C62.938 12.9638 67.7612 6.23669 69.5115 3.79269C69.7991 3.37189 70.0857 3.1377 70.7928 3.1377H72.7988L69.2703 8.05069L72.7988 12.9638ZM62.938 3.1377H65.7408L67.0633 4.97839L65.6449 6.9071L62.938 3.1377Z" fill="#DF3739"/>
<path fill-rule="evenodd" clip-rule="evenodd" d="M87.968 12.9638V4.4487C87.968 3.7118 88.3711 3.1377 89.2267 3.1377H89.9988V12.9638H87.968ZM84.0045 11.1858H80.4534C79.8524 11.1858 79.6988 11.3422 79.5287 11.7736C79.3308 12.3011 79.0731 12.9636 79.0731 12.9636H76.9465C76.9465 12.9636 77.5928 11.5274 78.0134 10.5212C78.202 10.0275 78.4453 9.5946 79.5565 9.5946H83.3273L81.8965 5.83L80.9378 8.2843H78.9463L81.1007 3.1243H82.7243L86.8084 12.9634H84.6807L84.0045 11.1858ZM74.8735 13C74.6667 12.9999 74.4645 12.9404 74.2925 12.8288C74.1205 12.7173 73.9865 12.5588 73.9074 12.3734C73.8283 12.188 73.8076 11.984 73.848 11.7872C73.8884 11.5903 73.988 11.4096 74.1343 11.2677C74.2806 11.1258 74.467 11.0292 74.6699 10.9901C74.8728 10.9509 75.0831 10.9711 75.2742 11.0479C75.4653 11.1247 75.6286 11.2547 75.7436 11.4216C75.8585 11.5885 75.9198 11.7846 75.9198 11.9853C75.9198 12.1186 75.8928 12.2506 75.8402 12.3737C75.7877 12.4969 75.7106 12.6088 75.6134 12.703C75.5163 12.7972 75.4009 12.872 75.2739 12.9229C75.147 12.9739 75.0109 13.0001 74.8735 13ZM62.4398 7.7572C62.2737 7.70336 62.0994 7.67726 61.9244 7.68C61.7418 7.67312 61.5597 7.70191 61.3888 7.76464C61.2179 7.82738 61.0618 7.92278 60.9296 8.0452C60.6729 8.2888 60.5448 8.66807 60.5451 9.183V11.95C60.545 12.0775 60.5189 12.2037 60.4685 12.3214C60.418 12.4391 60.3442 12.546 60.2511 12.636C60.1581 12.7261 60.0477 12.7974 59.9262 12.846C59.8047 12.8947 59.6746 12.9196 59.5432 12.9194H58.6433V6.1348H60.5451V6.7354C60.5503 6.7296 60.5544 6.7235 60.5595 6.7177C60.976 6.2355 61.5759 5.99437 62.3594 5.9943C62.6749 5.98851 62.9884 6.0434 63.282 6.1558C63.5643 6.27523 63.8149 6.45537 64.0149 6.6826L62.8243 8.0171C62.7224 7.89862 62.5896 7.80885 62.4398 7.7572ZM57.463 10.1663L52.3398 10.1785C52.3764 10.3126 52.4272 10.4427 52.4913 10.5667C52.6419 10.8618 52.8827 11.1047 53.1809 11.262C53.5028 11.4264 53.8625 11.5086 54.2262 11.5008C54.5583 11.5053 54.8883 11.4482 55.1983 11.3323C55.4918 11.2178 55.7515 11.0344 55.9539 10.7985L57.0857 11.8942C56.74 12.2789 56.308 12.5816 55.8229 12.7791C55.3212 12.9791 54.7831 13.0794 54.2406 13.0741C53.5549 13.0861 52.8775 12.9265 52.2738 12.6106C51.7123 12.3153 51.2433 11.8785 50.9162 11.3463C50.5944 10.7911 50.4248 10.1651 50.4235 9.52811C50.4222 8.89115 50.5894 8.26451 50.909 7.7081C51.228 7.17943 51.6867 6.74296 52.2377 6.4438C52.8136 6.13099 53.4643 5.97108 54.1241 5.9802C54.7438 5.97066 55.3549 6.12095 55.8951 6.4157C56.4108 6.69893 56.8335 7.1177 57.1146 7.6238C57.4115 8.16359 57.5616 8.76795 57.5506 9.3797C57.5506 9.5015 57.5454 9.6255 57.5362 9.7519C57.5239 9.89179 57.4994 10.0304 57.463 10.1663ZM55.5766 8.3542C55.455 8.09818 55.2576 7.88304 55.0096 7.7362C54.7351 7.58766 54.4239 7.51476 54.1097 7.5254C53.7647 7.51749 53.4239 7.59998 53.1232 7.7642C52.8424 7.92345 52.6172 8.16078 52.4769 8.4455C52.4193 8.55951 52.3733 8.67876 52.3398 8.8015L55.7271 8.7921C55.6948 8.64092 55.6442 8.49394 55.5766 8.3542ZM47.5102 12.3282C47.3253 12.5008 47.1149 12.6457 46.886 12.7582C46.4578 12.9643 45.9849 13.0679 45.507 13.0602C44.895 13.07 44.2929 12.9091 43.7724 12.5966C43.2617 12.285 42.8439 11.8491 42.5604 11.3324C42.2647 10.774 42.1105 10.1552 42.1105 9.5274C42.1105 8.8996 42.2647 8.28084 42.5604 7.7224C42.8439 7.20566 43.2617 6.76981 43.7724 6.4581C44.293 6.14568 44.895 5.98481 45.507 5.9946C45.9802 5.98791 46.4481 6.09147 46.8715 6.2966C47.099 6.4085 47.3092 6.55093 47.4958 6.7197V3.7548C47.4959 3.62445 47.5225 3.49541 47.5741 3.37504C47.6257 3.25467 47.7012 3.14534 47.7963 3.05328C47.8914 2.96122 48.0043 2.88824 48.1285 2.8385C48.2527 2.78876 48.3858 2.76324 48.5202 2.7634H49.4267V12.92H47.5102V12.3286V12.3282ZM47.4013 8.579C47.2546 8.30606 47.0319 8.07847 46.7586 7.92204C46.4854 7.76562 46.1723 7.68662 45.8551 7.694C45.527 7.68646 45.2031 7.76665 44.9188 7.9258C44.6526 8.0804 44.4364 8.30426 44.2947 8.572C44.1408 8.86535 44.0638 9.19094 44.0706 9.52C44.063 9.85378 44.1402 10.1842 44.2955 10.4822C44.4385 10.7514 44.6575 10.9755 44.927 11.1284C45.2088 11.2816 45.5266 11.3614 45.8497 11.3602C46.1727 11.359 46.4899 11.2767 46.7705 11.1214C47.0377 10.9659 47.2561 10.7424 47.4019 10.4752C47.5565 10.1846 47.6339 9.86102 47.6269 9.534C47.6347 9.20243 47.5572 8.8742 47.4013 8.579ZM40.0153 5.039C39.8725 5.04313 39.7304 5.01841 39.5979 4.96642C39.4655 4.91443 39.3457 4.83631 39.246 4.737C39.0502 4.53425 38.9412 4.26681 38.9412 3.98895C38.9412 3.71109 39.0502 3.44365 39.246 3.2409C39.4515 3.04287 39.7294 2.93174 40.0191 2.93174C40.3088 2.93174 40.5867 3.04287 40.7922 3.2409C40.9837 3.44578 41.0897 3.71242 41.0897 3.98895C41.0897 4.26548 40.9837 4.53212 40.7922 4.737C40.6919 4.83754 40.5709 4.91641 40.437 4.96847C40.3031 5.02052 40.1594 5.04449 40.0153 5.039ZM36.2655 12.5964C35.742 12.9083 35.1377 13.0692 34.5234 13.06C34.051 13.0668 33.5836 12.9657 33.1589 12.765C32.9247 12.6528 32.7092 12.507 32.5198 12.3324V14.8017C32.5194 15.0591 32.4137 15.3058 32.2258 15.4876C32.038 15.6694 31.7834 15.7714 31.518 15.7711H30.6327V6.1348H32.5342V6.7348C32.7205 6.56347 32.9306 6.41835 33.1584 6.3037C33.5804 6.0942 34.0489 5.98811 34.5229 5.9947C35.1393 5.98621 35.7456 6.14689 36.272 6.4582C36.7872 6.7647 37.2063 7.20186 37.4841 7.7225C37.7808 8.28254 37.9304 8.905 37.9195 9.5346C37.9293 10.1605 37.777 10.7787 37.4768 11.3327C37.1963 11.8511 36.7781 12.2874 36.2655 12.5965V12.5964ZM35.7356 8.5789C35.5923 8.31452 35.3795 8.09159 35.1188 7.9327C34.839 7.76867 34.5166 7.6858 34.1897 7.6939C33.8702 7.68888 33.5557 7.77167 33.2826 7.9327C33.0185 8.08982 32.8029 8.31304 32.6584 8.5789C32.5037 8.86953 32.4264 9.19307 32.4334 9.5201C32.427 9.84771 32.4991 10.1723 32.6439 10.4683C32.7809 10.7411 32.9981 10.9684 33.2682 11.1215C33.5518 11.2828 33.8756 11.3654 34.2044 11.3603C34.5265 11.3673 34.8439 11.2844 35.1189 11.1215C35.3811 10.9613 35.5941 10.7357 35.7357 10.4683C35.8899 10.175 35.9672 9.8493 35.9608 9.5201C35.9677 9.1931 35.8903 8.86961 35.7356 8.579V8.5789ZM25.6086 6.6615C25.9186 6.79731 26.236 6.91692 26.5593 7.0198C26.9077 7.13213 27.2513 7.26087 27.5901 7.406C27.925 7.54913 28.2396 7.73326 28.5263 7.9539C28.8205 8.1848 29.0563 8.47791 29.2158 8.8108C29.4021 9.21942 29.4915 9.66341 29.4772 10.11C29.4772 11.0279 29.1433 11.7513 28.4756 12.28C27.8078 12.8087 26.8885 13.0733 25.7176 13.0736C24.9047 13.0736 24.2055 12.9378 23.6201 12.6663C23.0039 12.3713 22.4615 11.9494 22.0307 11.4301L23.337 10.1658C23.6221 10.5291 23.9801 10.8325 24.3894 11.0578C24.8352 11.2809 25.3324 11.3897 25.8338 11.3739C26.3466 11.3739 26.753 11.2756 27.053 11.0789C27.1946 10.9928 27.3106 10.8724 27.3896 10.7295C27.4685 10.5866 27.5076 10.4262 27.5031 10.2642C27.515 9.99731 27.4216 9.73605 27.2418 9.5337C27.0476 9.33268 26.8129 9.1725 26.5523 9.0631C26.245 8.92862 25.9299 8.81136 25.6088 8.7119C25.2652 8.60437 24.9241 8.4803 24.5855 8.3397C24.2492 8.20072 23.9322 8.02139 23.642 7.8059C23.3505 7.58947 23.1145 7.31065 22.9524 6.9912C22.783 6.66347 22.6983 6.24203 22.6983 5.7269C22.6815 5.18363 22.8388 4.64867 23.1484 4.1957C23.4578 3.76696 23.8852 3.43128 24.3819 3.227C24.9412 2.99505 25.5446 2.88018 26.1528 2.8899C26.8052 2.8809 27.4517 3.01032 28.0471 3.2691C28.574 3.4938 29.0427 3.82972 29.4189 4.2524L28.1124 5.5167C27.8529 5.22897 27.5403 4.99076 27.1907 4.8143C26.8577 4.66077 26.4926 4.584 26.124 4.59C25.669 4.59 25.3109 4.67667 25.0499 4.85C24.9256 4.92745 24.8243 5.03482 24.7556 5.16162C24.687 5.28843 24.6534 5.43034 24.6581 5.5735C24.6525 5.69401 24.6728 5.81434 24.7178 5.92681C24.7628 6.03927 24.8314 6.14141 24.9194 6.2267C25.122 6.40856 25.355 6.5556 25.6086 6.6615ZM16.4882 15.9988H12.1453C11.9293 15.9988 11.7222 15.9156 11.5695 15.7674C11.4168 15.6193 11.331 15.4183 11.331 15.2088L11.3322 11.0359C11.3322 10.8614 11.2608 10.694 11.1336 10.5706L10.6158 10.0683C10.5528 10.0072 10.4781 9.95879 10.3958 9.92574C10.3136 9.8927 10.2254 9.87569 10.1364 9.8757L6.40479 9.8769C6.31581 9.87691 6.22771 9.89392 6.14552 9.92697C6.06333 9.96001 5.98865 10.0084 5.92576 10.0695L5.62631 10.3601C5.49918 10.4835 5.42777 10.6508 5.42777 10.8253V14.4841C5.42777 14.6936 5.34198 14.8946 5.18926 15.0427C5.03654 15.1909 4.82941 15.2741 4.61343 15.2741H0.813618C0.59764 15.2741 0.390503 15.1909 0.237783 15.0427C0.0850633 14.8946 -0.000732422 14.6936 -0.000732422 14.4841V10.7981C-0.000732422 10.5886 0.0850633 10.3876 0.237783 10.2395C0.390503 10.0913 0.59764 10.0081 0.813618 10.0081H4.55745C4.64646 10.0081 4.73459 9.99109 4.81682 9.95804C4.89904 9.925 4.97375 9.87656 5.03668 9.8155L5.36417 9.4977C5.42711 9.43665 5.47705 9.36418 5.51111 9.28441C5.54518 9.20464 5.56271 9.11914 5.56271 9.0328L5.56343 5.3996C5.56343 5.19008 5.64923 4.98914 5.80195 4.84099C5.95467 4.69283 6.1618 4.6096 6.37778 4.6096L10.122 4.609C10.3017 4.60893 10.4741 4.53966 10.6012 4.4164L10.9966 4.0327C11.1237 3.90932 11.1951 3.74203 11.1951 3.5676V0.789999C11.1951 0.580478 11.2809 0.379538 11.4336 0.231384C11.5863 0.0832305 11.7935 0 12.0095 0H14.8602C15.0762 0 15.2833 0.0832305 15.436 0.231384C15.5887 0.379538 15.6745 0.580478 15.6745 0.789999V3.5541C15.6745 3.76362 15.5887 3.96456 15.436 4.11271C15.2833 4.26087 15.0762 4.3441 14.8602 4.3441L12.106 4.3449C11.9263 4.34497 11.754 4.41429 11.627 4.5376L11.1911 4.9605C11.064 5.08383 10.9926 5.2511 10.9926 5.4255V9.0455C10.9926 9.21998 11.064 9.3873 11.1912 9.5107L11.7066 10.0107C11.8337 10.1339 12.006 10.2032 12.1857 10.2032H16.4885C16.7045 10.2032 16.9116 10.2864 17.0643 10.4346C17.217 10.5827 17.3028 10.7837 17.3028 10.9932V15.2075C17.303 15.3114 17.2821 15.4142 17.2412 15.5102C17.2004 15.6062 17.1404 15.6935 17.0647 15.767C16.9891 15.8405 16.8993 15.8988 16.8004 15.9386C16.7015 15.9783 16.5954 15.9988 16.4884 15.9988H16.4882ZM40.067 6.1348H40.9731V12.92H39.0427V7.1262C39.0429 6.99584 39.0695 6.86679 39.1211 6.74642C39.1727 6.62604 39.2482 6.5167 39.3433 6.42464C39.4385 6.33258 39.5514 6.2596 39.6756 6.20987C39.7998 6.16014 39.9329 6.13463 40.0673 6.1348H40.067Z" fill="white"/>
</g>
<defs>
<clipPath id="clip0_8294_93">
<rect width="90" height="16" fill="white"/>
</clipPath>
</defs>
</svg>
