<svg width="20" height="21" viewBox="0 0 20 21" fill="none" xmlns="http://www.w3.org/2000/svg">
<path d="M10.0003 18.8333C12.167 18.8333 14.1337 18.0083 15.617 16.65C15.5337 15.8667 15.0337 15.1 14.142 14.5C11.8753 12.9833 8.14199 12.9833 5.85866 14.5C4.96699 15.1 4.46699 15.8667 4.38366 16.65C5.86699 18.0083 7.83366 18.8333 10.0003 18.8333ZM10.0003 18.8333C14.6027 18.8333 18.3337 15.1024 18.3337 10.5C18.3337 5.89763 14.6027 2.16667 10.0003 2.16667C5.39795 2.16667 1.66699 5.89763 1.66699 10.5C1.66699 15.1024 5.39795 18.8333 10.0003 18.8333ZM10.1003 11.15C10.042 11.1417 9.96699 11.1417 9.90033 11.15C8.43366 11.1 7.26699 9.90001 7.26699 8.42501C7.26699 6.91667 8.48366 5.69167 10.0003 5.69167C11.5087 5.69167 12.7337 6.91667 12.7337 8.42501C12.7253 9.90001 11.567 11.1 10.1003 11.15Z" stroke="#9BA7B4" stroke-width="1.5" stroke-linecap="round" stroke-linejoin="round"/>
</svg>
