<svg width="23" height="22" viewBox="0 0 23 22" fill="none" xmlns="http://www.w3.org/2000/svg">
<mask id="mask0_5436_1628" style="mask-type:alpha" maskUnits="userSpaceOnUse" x="0" y="0" width="23" height="22">
<rect x="0.588867" width="22" height="22" fill="#D9D9D9"/>
</mask>
<g mask="url(#mask0_5436_1628)">
<path d="M18.8767 14.6208L17.4559 13.2C18.1281 12.5736 18.6552 11.8327 19.0371 10.9771C19.4191 10.1215 19.61 9.21251 19.61 8.25001C19.61 7.28751 19.4191 6.38613 19.0371 5.54585C18.6552 4.70557 18.1281 3.97224 17.4559 3.34585L18.8767 1.87918C19.7323 2.6889 20.4121 3.64376 20.9163 4.74376C21.4204 5.84376 21.6725 7.01251 21.6725 8.25001C21.6725 9.48751 21.4204 10.6563 20.9163 11.7563C20.4121 12.8563 19.7323 13.8111 18.8767 14.6208ZM15.9434 11.6875L14.4767 10.2208C14.7517 9.96113 14.9732 9.66703 15.1413 9.33856C15.3093 9.01008 15.3934 8.64724 15.3934 8.25001C15.3934 7.85279 15.3093 7.48994 15.1413 7.16147C14.9732 6.833 14.7517 6.5389 14.4767 6.27918L15.9434 4.81251C16.4323 5.25557 16.8142 5.7712 17.0892 6.35939C17.3642 6.94758 17.5017 7.57779 17.5017 8.25001C17.5017 8.92224 17.3642 9.55244 17.0892 10.1406C16.8142 10.7288 16.4323 11.2445 15.9434 11.6875ZM8.83919 11.9167C7.83086 11.9167 6.96767 11.5577 6.24961 10.8396C5.53155 10.1215 5.17253 9.25835 5.17253 8.25001C5.17253 7.24168 5.53155 6.37849 6.24961 5.66043C6.96767 4.94238 7.83086 4.58335 8.83919 4.58335C9.84753 4.58335 10.7107 4.94238 11.4288 5.66043C12.1468 6.37849 12.5059 7.24168 12.5059 8.25001C12.5059 9.25835 12.1468 10.1215 11.4288 10.8396C10.7107 11.5577 9.84753 11.9167 8.83919 11.9167ZM1.50586 19.25V16.6833C1.50586 16.1792 1.63572 15.7056 1.89544 15.2625C2.15517 14.8195 2.51419 14.4833 2.97253 14.2542C3.75169 13.857 4.63017 13.5208 5.60794 13.2458C6.58572 12.9708 7.6628 12.8333 8.83919 12.8333C10.0156 12.8333 11.0927 12.9708 12.0704 13.2458C13.0482 13.5208 13.9267 13.857 14.7059 14.2542C15.1642 14.4833 15.5232 14.8195 15.7829 15.2625C16.0427 15.7056 16.1725 16.1792 16.1725 16.6833V19.25H1.50586ZM3.33919 17.4167H14.3392V16.6833C14.3392 16.5153 14.2972 16.3625 14.2132 16.225C14.1291 16.0875 14.0184 15.9806 13.8809 15.9042C13.3309 15.6292 12.6243 15.3542 11.7611 15.0792C10.8979 14.8042 9.92392 14.6667 8.83919 14.6667C7.75447 14.6667 6.78051 14.8042 5.91732 15.0792C5.05412 15.3542 4.34753 15.6292 3.79753 15.9042C3.66003 15.9806 3.54926 16.0875 3.46523 16.225C3.38121 16.3625 3.33919 16.5153 3.33919 16.6833V17.4167ZM8.83919 10.0833C9.34336 10.0833 9.77496 9.90383 10.134 9.54481C10.493 9.18578 10.6725 8.75418 10.6725 8.25001C10.6725 7.74585 10.493 7.31425 10.134 6.95522C9.77496 6.59619 9.34336 6.41668 8.83919 6.41668C8.33503 6.41668 7.90343 6.59619 7.5444 6.95522C7.18537 7.31425 7.00586 7.74585 7.00586 8.25001C7.00586 8.75418 7.18537 9.18578 7.5444 9.54481C7.90343 9.90383 8.33503 10.0833 8.83919 10.0833Z" fill="#1C1B1F"/>
</g>
</svg>
