<svg width="20" height="20" viewBox="0 0 20 20" fill="none" xmlns="http://www.w3.org/2000/svg">
<path d="M18.5 3.77614V8.44404M18.5 8.44404H13.8636M18.5 8.44404L14.9145 5.05203C14.0841 4.21548 13.0566 3.60437 11.9281 3.27572C10.7996 2.94708 9.60676 2.91161 8.46095 3.17263C7.31513 3.43365 6.25366 3.98264 5.37559 4.76839C4.49751 5.55414 3.83145 6.55104 3.43955 7.66605M1.5 16.2239V11.556M1.5 11.556H6.13636M1.5 11.556L5.08545 14.948C5.91594 15.7845 6.94338 16.3956 8.0719 16.7243C9.20042 17.0529 10.3932 17.0884 11.5391 16.8274C12.6849 16.5664 13.7463 16.0174 14.6244 15.2316C15.5025 14.4459 16.1686 13.449 16.5605 12.3339" stroke="#9BA7B4" stroke-width="1.5" stroke-linecap="round" stroke-linejoin="round"/>
</svg>
