<svg width="30" height="30" viewBox="0 0 30 30" fill="none" xmlns="http://www.w3.org/2000/svg">
<path d="M12.375 17.625C11.7083 16.9583 11.099 16.2604 10.5469 15.5312C9.99479 14.8021 9.48958 14.0312 9.03125 13.2188C8.92708 13.5104 8.85938 13.8073 8.82812 14.1094C8.79688 14.4115 8.78125 14.7083 8.78125 15C8.78125 16.7292 9.38542 18.1979 10.5938 19.4062C11.8021 20.6146 13.2708 21.2188 15 21.2188C15.2917 21.2188 15.5885 21.1979 15.8906 21.1563C16.1927 21.1146 16.4896 21.0521 16.7812 20.9688C15.9688 20.5104 15.1979 20.0052 14.4688 19.4531C13.7396 18.901 13.0417 18.2917 12.375 17.625ZM14.1562 15.875C15.2188 16.9375 16.4062 17.849 17.7188 18.6094C19.0312 19.3698 20.4375 19.9583 21.9375 20.375C21.1042 21.4375 20.0833 22.2656 18.875 22.8594C17.6667 23.4531 16.3854 23.75 15.0313 23.75C12.5938 23.75 10.526 22.901 8.82812 21.2031C7.13021 19.5052 6.28125 17.4375 6.28125 15C6.28125 13.6458 6.57813 12.3646 7.17188 11.1562C7.76562 9.94792 8.59375 8.92708 9.65625 8.09375C10.0729 9.59375 10.6615 11 11.4219 12.3125C12.1823 13.625 13.0938 14.8125 14.1562 15.875ZM23.2188 18.125C22.8021 18.0208 22.3906 17.9062 21.9844 17.7812C21.5781 17.6562 21.1771 17.5104 20.7812 17.3438C20.9479 16.9688 21.0677 16.5885 21.1406 16.2031C21.2135 15.8177 21.25 15.4167 21.25 15C21.25 13.2708 20.6406 11.7969 19.4219 10.5781C18.2031 9.35938 16.7292 8.75 15 8.75C14.5833 8.75 14.1823 8.78646 13.7969 8.85938C13.4115 8.93229 13.0312 9.05208 12.6562 9.21875C12.4896 8.82292 12.349 8.42708 12.2344 8.03125C12.1198 7.63542 12.0104 7.22917 11.9063 6.8125C12.4063 6.625 12.9167 6.48438 13.4375 6.39062C13.9583 6.29688 14.4896 6.25 15.0313 6.25C17.4688 6.25 19.5365 7.09896 21.2344 8.79688C22.9323 10.4948 23.7812 12.5625 23.7812 15C23.7812 15.5417 23.7344 16.0729 23.6406 16.5938C23.5469 17.1146 23.4063 17.625 23.2188 18.125ZM13.75 3.75V0H16.25V3.75H13.75ZM13.75 30V26.25H16.25V30H13.75ZM23.8438 7.9375L22.0625 6.15625L24.7188 3.53125L26.5 5.28125L23.8438 7.9375ZM5.28125 26.4688L3.5 24.7188L6.15625 22.0625L7.9375 23.8438L5.28125 26.4688ZM26.25 16.25V13.75H30V16.25H26.25ZM0 16.25V13.75H3.75V16.25H0ZM24.7188 26.5L22.0625 23.8438L23.8438 22.0625L26.4688 24.7188L24.7188 26.5ZM6.15625 7.9375L3.53125 5.28125L5.28125 3.5L7.9375 6.15625L6.15625 7.9375Z" fill="#798491"/>
</svg>
