<svg width="60" height="60" viewBox="0 0 60 60" fill="none" xmlns="http://www.w3.org/2000/svg">
<rect width="60" height="60" rx="30" fill="url(#paint0_linear_5280_313)"/>
<path d="M30 40C29.3864 40 28.8889 39.5025 28.8889 38.8889V34.4444C28.8889 33.8308 29.3864 33.3333 30 33.3333C30.6137 33.3333 31.1111 33.8308 31.1111 34.4444V35.5556H38.8889C39.5025 35.5556 40 36.053 40 36.6667C40 37.2803 39.5025 37.7778 38.8889 37.7778H31.1111V38.8889C31.1111 39.5025 30.6137 40 30 40ZM21.1111 37.7778C20.4975 37.7778 20 37.2803 20 36.6667C20 36.053 20.4975 35.5556 21.1111 35.5556H25.5556C26.1692 35.5556 26.6667 36.053 26.6667 36.6667C26.6667 37.2803 26.1692 37.7778 25.5556 37.7778H21.1111ZM25.5556 33.3333C24.9419 33.3333 24.4444 32.8359 24.4444 32.2222V31.1111H21.1111C20.4975 31.1111 20 30.6137 20 30C20 29.3864 20.4975 28.8889 21.1111 28.8889H24.4444V27.7778C24.4444 27.1641 24.9419 26.6667 25.5556 26.6667C26.1692 26.6667 26.6667 27.1641 26.6667 27.7778V32.2222C26.6667 32.8359 26.1692 33.3333 25.5556 33.3333ZM30 31.1111C29.3863 31.1111 28.8889 30.6137 28.8889 30C28.8889 29.3864 29.3864 28.8889 30 28.8889H38.8889C39.5025 28.8889 40 29.3864 40 30C40 30.6137 39.5025 31.1111 38.8889 31.1111H30ZM34.4444 26.6667C33.8308 26.6667 33.3333 26.1692 33.3333 25.5556V21.1111C33.3333 20.4975 33.8308 20 34.4444 20C35.0581 20 35.5556 20.4975 35.5556 21.1111V22.2222H38.8889C39.5025 22.2222 40 22.7197 40 23.3333C40 23.947 39.5025 24.4444 38.8889 24.4444H35.5556V25.5556C35.5556 26.1692 35.0581 26.6667 34.4444 26.6667ZM21.1111 24.4444C20.4975 24.4444 20 23.947 20 23.3333C20 22.7197 20.4975 22.2222 21.1111 22.2222H30C30.6137 22.2222 31.1111 22.7197 31.1111 23.3333C31.1111 23.947 30.6137 24.4444 30 24.4444H21.1111Z" fill="#01162B"/>
<defs>
<linearGradient id="paint0_linear_5280_313" x1="0" y1="0" x2="60" y2="60" gradientUnits="userSpaceOnUse">
<stop stop-color="#CBFEFF"/>
<stop offset="1" stop-color="#6ABCFF"/>
</linearGradient>
</defs>
</svg>
