<svg width="24" height="24" viewBox="0 0 24 24" fill="none" xmlns="http://www.w3.org/2000/svg">
<path d="M12 23.25C11.3096 23.25 10.75 22.6904 10.75 22V17C10.75 16.3096 11.3096 15.75 12 15.75C12.6904 15.75 13.25 16.3096 13.25 17V18.25H22C22.6904 18.25 23.25 18.8096 23.25 19.5C23.25 20.1904 22.6904 20.75 22 20.75H13.25V22C13.25 22.6904 12.6904 23.25 12 23.25ZM2 20.75C1.30964 20.75 0.75 20.1904 0.75 19.5C0.75 18.8096 1.30964 18.25 2 18.25H7C7.69036 18.25 8.25 18.8096 8.25 19.5C8.25 20.1904 7.69036 20.75 7 20.75H2ZM7 15.75C6.30964 15.75 5.75 15.1904 5.75 14.5V13.25H2C1.30964 13.25 0.75 12.6904 0.75 12C0.75 11.3096 1.30964 10.75 2 10.75H5.75V9.5C5.75 8.80964 6.30964 8.25 7 8.25C7.69036 8.25 8.25 8.80964 8.25 9.5V14.5C8.25 15.1904 7.69036 15.75 7 15.75ZM12 13.25C11.3096 13.25 10.75 12.6904 10.75 12C10.75 11.3096 11.3096 10.75 12 10.75H22C22.6904 10.75 23.25 11.3096 23.25 12C23.25 12.6904 22.6904 13.25 22 13.25H12ZM17 8.25C16.3096 8.25 15.75 7.69036 15.75 7V2C15.75 1.30964 16.3096 0.75 17 0.75C17.6904 0.75 18.25 1.30964 18.25 2V3.25H22C22.6904 3.25 23.25 3.80964 23.25 4.5C23.25 5.19036 22.6904 5.75 22 5.75H18.25V7C18.25 7.69036 17.6904 8.25 17 8.25ZM2 5.75C1.30964 5.75 0.75 5.19036 0.75 4.5C0.75 3.80964 1.30964 3.25 2 3.25H12C12.6904 3.25 13.25 3.80964 13.25 4.5C13.25 5.19036 12.6904 5.75 12 5.75H2Z" fill="black"/>
</svg>
