<svg width="19" height="19" viewBox="0 0 19 19" fill="none" xmlns="http://www.w3.org/2000/svg">
<path d="M9.33333 12C10.714 12 11.8333 10.8807 11.8333 9.5C11.8333 8.11929 10.714 7 9.33333 7C7.95262 7 6.83333 8.11929 6.83333 9.5C6.83333 10.8807 7.95262 12 9.33333 12Z" stroke="#9BA7B4" stroke-width="1.5" stroke-miterlimit="10" stroke-linecap="round" stroke-linejoin="round"/>
<path d="M1 10.2333V8.76666C1 7.9 1.70833 7.18333 2.58333 7.18333C4.09167 7.18333 4.70833 6.11666 3.95 4.80833C3.51667 4.05833 3.775 3.08333 4.53333 2.65L5.975 1.825C6.63333 1.43333 7.48333 1.66666 7.875 2.325L7.96667 2.48333C8.71667 3.79166 9.95 3.79166 10.7083 2.48333L10.8 2.325C11.1917 1.66666 12.0417 1.43333 12.7 1.825L14.1417 2.65C14.9 3.08333 15.1583 4.05833 14.725 4.80833C13.9667 6.11666 14.5833 7.18333 16.0917 7.18333C16.9583 7.18333 17.675 7.89166 17.675 8.76666V10.2333C17.675 11.1 16.9667 11.8167 16.0917 11.8167C14.5833 11.8167 13.9667 12.8833 14.725 14.1917C15.1583 14.95 14.9 15.9167 14.1417 16.35L12.7 17.175C12.0417 17.5667 11.1917 17.3333 10.8 16.675L10.7083 16.5167C9.95833 15.2083 8.725 15.2083 7.96667 16.5167L7.875 16.675C7.48333 17.3333 6.63333 17.5667 5.975 17.175L4.53333 16.35C3.775 15.9167 3.51667 14.9417 3.95 14.1917C4.70833 12.8833 4.09167 11.8167 2.58333 11.8167C1.70833 11.8167 1 11.1 1 10.2333Z" stroke="#9BA7B4" stroke-width="1.5" stroke-miterlimit="10" stroke-linecap="round" stroke-linejoin="round"/>
</svg>
