<svg width="34" height="34" viewBox="0 0 34 34" fill="none" xmlns="http://www.w3.org/2000/svg">
<path fill-rule="evenodd" clip-rule="evenodd" d="M27.8701 28H21.8466C21.547 28 21.2597 27.8855 21.0479 27.6818C20.8361 27.4781 20.7171 27.2018 20.7171 26.9137L20.7188 21.1755C20.7188 20.9355 20.6197 20.7054 20.4433 20.5357L19.7251 19.845C19.6378 19.761 19.5341 19.6944 19.42 19.6489C19.3059 19.6035 19.1836 19.5801 19.0601 19.5801L13.8844 19.5818C13.761 19.5818 13.6388 19.6052 13.5248 19.6506C13.4108 19.696 13.3073 19.7626 13.22 19.8466L12.8047 20.2462C12.6284 20.4159 12.5293 20.646 12.5293 20.8859V25.9171C12.5293 26.2052 12.4103 26.4816 12.1985 26.6853C11.9867 26.889 11.6994 27.0035 11.3998 27.0035H6.1295C5.82994 27.0035 5.54264 26.889 5.33082 26.6853C5.119 26.4816 5 26.2052 5 25.9171V20.8485C5 20.5604 5.119 20.2841 5.33082 20.0804C5.54264 19.8766 5.82994 19.7622 6.1295 19.7622H11.3222C11.4456 19.7622 11.5679 19.7388 11.6819 19.6933C11.796 19.6479 11.8996 19.5813 11.9869 19.4973L12.4411 19.0603C12.5284 18.9764 12.5977 18.8767 12.6449 18.767C12.6922 18.6573 12.7165 18.5398 12.7165 18.421L12.7175 13.425C12.7175 13.1369 12.8365 12.8606 13.0483 12.6569C13.2601 12.4531 13.5474 12.3387 13.847 12.3387L19.0402 12.3379C19.2895 12.3378 19.5285 12.2425 19.7048 12.073L20.2532 11.5454C20.4295 11.3757 20.5286 11.1457 20.5286 10.9058V7.08633C20.5286 6.79822 20.6476 6.5219 20.8594 6.31818C21.0713 6.11445 21.3585 6 21.6581 6H25.6121C25.9116 6 26.1989 6.11445 26.4107 6.31818C26.6226 6.5219 26.7416 6.79822 26.7416 7.08633V10.8873C26.7416 11.1754 26.6226 11.4517 26.4107 11.6554C26.1989 11.8591 25.9116 11.9736 25.6121 11.9736L21.7921 11.9747C21.5428 11.9748 21.3038 12.0701 21.1277 12.2397L20.523 12.8212C20.3467 12.9908 20.2477 13.2208 20.2477 13.4606V18.4385C20.2477 18.6784 20.3468 18.9085 20.5232 19.0782L21.2381 19.7657C21.4143 19.9352 21.6534 20.0304 21.9026 20.0305H27.8705C28.1701 20.0305 28.4574 20.1449 28.6692 20.3486C28.881 20.5524 29 20.8287 29 21.1168V26.9119C29.0002 27.0547 28.9712 27.1962 28.9145 27.3282C28.8579 27.4602 28.7747 27.5802 28.6698 27.6812C28.5649 27.7823 28.4402 27.8625 28.3031 27.9172C28.1659 27.9719 28.0186 28 27.8701 28Z" fill="white"/>
</svg>
