<svg width="30" height="30" viewBox="0 0 30 30" fill="none" xmlns="http://www.w3.org/2000/svg">
<mask id="mask0_10130_6471" style="mask-type:alpha" maskUnits="userSpaceOnUse" x="0" y="0" width="30" height="30">
<rect width="30" height="30" fill="#fff"/>
</mask>
<g mask="url(#mask0_10130_6471)">
<path d="M9.99805 20H19.9981V9.99997H9.99805V20ZM14.998 27.5C13.2689 27.5 11.6439 27.1718 10.123 26.5156C8.60221 25.8593 7.2793 24.9687 6.1543 23.8437C5.0293 22.7187 4.13867 21.3958 3.48242 19.875C2.82617 18.3541 2.49805 16.7291 2.49805 15C2.49805 13.2708 2.82617 11.6458 3.48242 10.125C4.13867 8.60414 5.0293 7.28122 6.1543 6.15622C7.2793 5.03122 8.60221 4.14059 10.123 3.48434C11.6439 2.82809 13.2689 2.49997 14.998 2.49997C16.7272 2.49997 18.3522 2.82809 19.8731 3.48434C21.3939 4.14059 22.7168 5.03122 23.8418 6.15622C24.9668 7.28122 25.8574 8.60414 26.5137 10.125C27.1699 11.6458 27.4981 13.2708 27.4981 15C27.4981 16.7291 27.1699 18.3541 26.5137 19.875C25.8574 21.3958 24.9668 22.7187 23.8418 23.8437C22.7168 24.9687 21.3939 25.8593 19.8731 26.5156C18.3522 27.1718 16.7272 27.5 14.998 27.5Z" fill="#fff"/>
</g>
</svg>
