<svg width="48" height="48" viewBox="0 0 48 48" fill="none" xmlns="http://www.w3.org/2000/svg">
<circle cx="24" cy="24" r="24" fill="white"/>
<g clip-path="url(#clip0_5422_216)">
<path fill-rule="evenodd" clip-rule="evenodd" d="M32.8304 17.7571L27.2004 33.6521C27.0689 34.0461 26.8163 34.3885 26.4788 34.6305C26.1412 34.8726 25.7358 35.0019 25.3204 35.0001C24.9101 35.0039 24.5088 34.88 24.172 34.6457C23.8352 34.4113 23.5795 34.0781 23.4404 33.6921L21.3405 28.1811L22.8605 26.6421L25.3304 24.1571C25.5177 23.9686 25.6228 23.7137 25.6228 23.4481C25.6228 23.1824 25.5177 22.9276 25.3304 22.7391C25.2382 22.6459 25.1285 22.5719 25.0074 22.5214C24.8864 22.471 24.7566 22.445 24.6255 22.445C24.4944 22.445 24.3645 22.471 24.2435 22.5214C24.1225 22.5719 24.0128 22.6459 23.9205 22.7391L21.4604 25.2251L19.8905 26.7731L14.4305 24.6461C14.021 24.5208 13.6624 24.2674 13.4077 23.9231C13.153 23.5788 13.0156 23.1618 13.0156 22.7336C13.0156 22.3053 13.153 21.8884 13.4077 21.5441C13.6624 21.1998 14.021 20.9464 14.4305 20.8211L30.2405 15.1501C30.6043 15.0029 31.0035 14.9664 31.3879 15.0452C31.7724 15.124 32.1251 15.3146 32.4017 15.593C32.6783 15.8714 32.8666 16.2253 32.9429 16.6103C33.0191 16.9953 32.98 17.3942 32.8304 17.7571Z" fill="black"/>
</g>
<defs>
<clipPath id="clip0_5422_216">
<rect width="20" height="20" fill="white" transform="translate(13 15)"/>
</clipPath>
</defs>
</svg>
