<svg width="70" height="70" viewBox="0 0 70 70" fill="none" xmlns="http://www.w3.org/2000/svg">
<rect width="70" height="70" rx="35" fill="url(#paint0_linear_5735_1710)"/>
<mask id="mask0_5735_1710" style="mask-type:alpha" maskUnits="userSpaceOnUse" x="18" y="18" width="34" height="34">
<rect x="18" y="18" width="34" height="34" fill="#D9D9D9"/>
</mask>
<g mask="url(#mask0_5735_1710)">
<path d="M22.5677 38.7187L20.2656 37.0541L27.349 25.7208L31.599 30.6791L37.2656 21.4708L41.5156 27.8458L46.2969 20.2666L48.599 21.9312L41.5865 33.052L37.3719 26.7124L31.9885 35.4604L27.7031 30.4666L22.5677 38.7187ZM39.3906 44.3499C40.3823 44.3499 41.2205 44.0076 41.9052 43.3229C42.5899 42.6381 42.9323 41.7999 42.9323 40.8083C42.9323 39.8166 42.5899 38.9784 41.9052 38.2937C41.2205 37.609 40.3823 37.2666 39.3906 37.2666C38.399 37.2666 37.5608 37.609 36.876 38.2937C36.1913 38.9784 35.849 39.8166 35.849 40.8083C35.849 41.7999 36.1913 42.6381 36.876 43.3229C37.5608 44.0076 38.399 44.3499 39.3906 44.3499ZM46.6156 50.0166L42.7906 46.1916C42.2948 46.5222 41.7576 46.7701 41.1792 46.9354C40.6007 47.1006 40.0045 47.1833 39.3906 47.1833C37.6198 47.1833 36.1146 46.5635 34.875 45.3239C33.6354 44.0843 33.0156 42.5791 33.0156 40.8083C33.0156 39.0374 33.6354 37.5322 34.875 36.2926C36.1146 35.0531 37.6198 34.4333 39.3906 34.4333C41.1615 34.4333 42.6667 35.0531 43.9063 36.2926C45.1458 37.5322 45.7656 39.0374 45.7656 40.8083C45.7656 41.4222 45.683 42.0183 45.5177 42.5968C45.3524 43.1753 45.1045 43.7124 44.774 44.2083L48.599 48.0333L46.6156 50.0166Z" fill="black"/>
</g>
<defs>
<linearGradient id="paint0_linear_5735_1710" x1="0" y1="0" x2="70" y2="70" gradientUnits="userSpaceOnUse">
<stop stop-color="#CBFEFF"/>
<stop offset="1" stop-color="#6ABCFF"/>
</linearGradient>
</defs>
</svg>
