<svg width="26" height="24" viewBox="0 0 26 24" fill="none" xmlns="http://www.w3.org/2000/svg">
<path d="M5.49951 23.25C4.12451 23.25 2.94743 22.7604 1.96826 21.7812C0.989095 20.8021 0.499512 19.625 0.499512 18.25C0.499512 16.875 0.989095 15.6979 1.96826 14.7188C2.94743 13.7396 4.12451 13.25 5.49951 13.25C6.87451 13.25 8.0516 13.7396 9.03076 14.7188C10.0099 15.6979 10.4995 16.875 10.4995 18.25C10.4995 19.625 10.0099 20.8021 9.03076 21.7812C8.0516 22.7604 6.87451 23.25 5.49951 23.25ZM20.4995 23.25C19.1245 23.25 17.9474 22.7604 16.9683 21.7812C15.9891 20.8021 15.4995 19.625 15.4995 18.25C15.4995 16.875 15.9891 15.6979 16.9683 14.7188C17.9474 13.7396 19.1245 13.25 20.4995 13.25C21.8745 13.25 23.0516 13.7396 24.0308 14.7188C25.0099 15.6979 25.4995 16.875 25.4995 18.25C25.4995 19.625 25.0099 20.8021 24.0308 21.7812C23.0516 22.7604 21.8745 23.25 20.4995 23.25ZM5.49951 20.75C6.18701 20.75 6.77555 20.5052 7.26514 20.0156C7.75472 19.526 7.99951 18.9375 7.99951 18.25C7.99951 17.5625 7.75472 16.974 7.26514 16.4844C6.77555 15.9948 6.18701 15.75 5.49951 15.75C4.81201 15.75 4.22347 15.9948 3.73389 16.4844C3.2443 16.974 2.99951 17.5625 2.99951 18.25C2.99951 18.9375 3.2443 19.526 3.73389 20.0156C4.22347 20.5052 4.81201 20.75 5.49951 20.75ZM20.4995 20.75C21.187 20.75 21.7756 20.5052 22.2651 20.0156C22.7547 19.526 22.9995 18.9375 22.9995 18.25C22.9995 17.5625 22.7547 16.974 22.2651 16.4844C21.7756 15.9948 21.187 15.75 20.4995 15.75C19.812 15.75 19.2235 15.9948 18.7339 16.4844C18.2443 16.974 17.9995 17.5625 17.9995 18.25C17.9995 18.9375 18.2443 19.526 18.7339 20.0156C19.2235 20.5052 19.812 20.75 20.4995 20.75ZM12.9995 10.75C11.6245 10.75 10.4474 10.2604 9.46826 9.28125C8.4891 8.30208 7.99951 7.125 7.99951 5.75C7.99951 4.375 8.4891 3.19792 9.46826 2.21875C10.4474 1.23958 11.6245 0.75 12.9995 0.75C14.3745 0.75 15.5516 1.23958 16.5308 2.21875C17.5099 3.19792 17.9995 4.375 17.9995 5.75C17.9995 7.125 17.5099 8.30208 16.5308 9.28125C15.5516 10.2604 14.3745 10.75 12.9995 10.75ZM12.9995 8.25C13.687 8.25 14.2756 8.00521 14.7651 7.51562C15.2547 7.02604 15.4995 6.4375 15.4995 5.75C15.4995 5.0625 15.2547 4.47396 14.7651 3.98438C14.2756 3.49479 13.687 3.25 12.9995 3.25C12.312 3.25 11.7235 3.49479 11.2339 3.98438C10.7443 4.47396 10.4995 5.0625 10.4995 5.75C10.4995 6.4375 10.7443 7.02604 11.2339 7.51562C11.7235 8.00521 12.312 8.25 12.9995 8.25Z" fill="white"/>
</svg>
